<svg xmlns="http://www.w3.org/2000/svg" xmlns:xlink="http://www.w3.org/1999/xlink" id="Layer_1" x="0px" y="0px" viewBox="0 0 141.7 141.7" style="enable-background:new 0 0 141.7 141.7;" xml:space="preserve"><style type="text/css">	.st0{fill:#452817;}	.st1{fill:#A8C813;}</style><g>	<polygon class="st0" points="130.8,95.1 11.8,95.1 11.8,97.2 28.9,97.2 18,102.3 19,104.4 34.3,97.2 48,97.2 25.3,114.5   26.7,116.3 51.8,97.2 62.5,97.2 45,134.7 47.2,135.8 65.2,97.2 77.3,97.2 95.4,135.8 97.6,134.7 80,97.2 90.7,97.2 115.8,116.3   117.2,114.5 94.5,97.2 108.2,97.2 108.2,97.3 123.6,104.4 124.5,102.3 113.6,97.2 130.8,97.2  "></polygon>	<polygon class="st1" points="16.9,23.1 28.5,23.1 28.5,18.6 16.9,18.6 16.9,11.1 31.1,11.1 31.1,6.7 11.8,6.7 11.8,35.3 16.9,35.3    "></polygon>	<path class="st1" d="M51,17c0,3.3-2.2,5.8-5.1,5.8h-6V11.1h6C48.8,11.1,51,13.7,51,17 M39.9,27.3h5.6l5.4,8h5.8l-6.1-9  c3.5-1.7,5.6-5.2,5.6-9.3c0-5.7-4.5-10.3-10.3-10.3H34.7v28.6h5.2V27.3z"></path>	<polygon class="st1" points="80.3,30.8 65.4,30.8 65.4,22.7 77,22.7 77,18.2 65.4,18.2 65.4,11.1 79.6,11.1 79.6,6.7 60.2,6.7   60.2,35.3 80.3,35.3  "></polygon>	<path class="st1" d="M94.4,31.5c-2.5,0-4.8-1.1-6.5-3l0,0c-0.2-0.2-0.3-0.4-0.5-0.6L87,27.3l-3.6,3.6l0.3,0.4  c2.8,3,6.6,4.7,10.6,4.7c4.8,0,8.7-2.1,10.1-5.4c1.3-3,0.2-5.8,0.2-5.8c-1.5-3.9-5.5-5.2-9.1-6.2l-0.1,0c-3.1-0.9-4.8-1.7-5.4-3.4  c-0.3-0.8-0.2-1.9,0.2-2.7c1.1-2,4-2.1,4-2.1c2.4,0,4.8,1.1,6.6,3c0.2,0.2,0.4,0.4,0.5,0.6l0.4,0.5l3.5-3.5l-0.3-0.4  C102.2,7.7,98.4,6,94.3,6c-0.6,0-6.4,0.1-8.7,4.4c-1,1.9-1.2,4.2-0.5,6.2c1.4,3.9,5.6,5.2,9,6.2c3.3,1,4.9,1.8,5.6,3.6l0,0.1  c0.1,0.3,0.3,1.3-0.1,2.4C99,30.6,97.1,31.5,94.4,31.5"></path>	<polygon class="st1" points="125.6,6.7 125.6,18.7 113.8,18.7 113.8,6.7 108.6,6.7 108.6,35.3 113.8,35.3 113.8,23.2 125.6,23.2   125.6,35.3 130.8,35.3 130.8,6.7  "></polygon>	<path class="st1" d="M22.1,45.4c2.5,0,4.9,1.1,6.7,3.1c0.2,0.2,0.4,0.4,0.5,0.6l0.4,0.5l3.6-3.6L33,45.7c-2.9-3.1-6.7-4.9-10.8-4.9  c-0.7,0-6.5,0.1-8.8,4.5c-1.1,2-1.2,4.3-0.5,6.4c1.4,4,5.7,5.3,9.2,6.3c3.3,1,5,1.8,5.7,3.6l0,0.1c0.1,0.3,0.3,1.4-0.1,2.4  C26.8,66,25,67,22.1,67c-2.5,0-4.9-1.1-6.7-3.1l0,0c-0.2-0.2-0.3-0.4-0.5-0.6l-0.4-0.6l-3.6,3.6l0.4,0.4c2.8,3,6.8,4.8,10.9,4.8  c5,0,8.9-2.2,10.4-5.5c1.3-3,0.2-5.9,0.2-5.9c-1.5-4-5.6-5.3-9.3-6.4l-0.1,0c-3.2-1-4.9-1.8-5.5-3.5c-0.3-0.8-0.2-1.9,0.2-2.7  C19.1,45.4,22.1,45.4,22.1,45.4"></path>	<polygon class="st1" points="59.8,41.6 37.1,41.6 37.1,46.1 45.9,46.1 45.9,70.8 51.1,70.8 51.1,46.1 59.8,46.1  "></polygon>	<path class="st1" d="M74.1,58.9h-6.9l3.5-9.1L74.1,58.9z M69.1,41.6l-12,29.2h5.7l2.8-7.4h10.3l2.8,7.4h5.7l-12-29.2L69.1,41.6  L69.1,41.6z"></path>	<path class="st1" d="M102.6,52.1c0,3.4-2.3,6-5.3,6h-6.2v-12h6.2C100.3,46.1,102.6,48.7,102.6,52.1 M107.9,52.1  c0-5.9-4.6-10.5-10.5-10.5H85.9v29.2h5.2v-8.2h5.7l5.5,8.2h5.9l-6.3-9.3C105.7,59.8,107.9,56.2,107.9,52.1"></path>	<polygon class="st1" points="108.1,46.1 116.8,46.1 116.8,70.8 122.1,70.8 122.1,46.1 130.8,46.1 130.8,41.6 108.1,41.6  "></polygon>	<path class="st0" d="M127.6,90.2c0.8,0,1.4-0.2,1.9-0.7c0.5-0.5,0.7-1.2,0.7-2c0-0.4-0.1-0.8-0.2-1.2c-0.2-0.3-0.4-0.6-0.7-0.9  c-0.3-0.3-0.7-0.6-1.3-1.1c-0.6-0.4-1-0.8-1.2-1.1c-0.2-0.3-0.3-0.6-0.3-1c0-0.4,0.1-0.8,0.3-1c0.2-0.2,0.5-0.4,0.8-0.4  c0.4,0,0.7,0.1,0.9,0.4c0.2,0.3,0.3,0.6,0.3,1.1v0.4c0,0.1,0,0.1,0.1,0.1h1.1c0.1,0,0.1,0,0.1-0.1v-0.4c0-0.8-0.2-1.5-0.7-2  c-0.5-0.5-1.1-0.7-1.9-0.7c-0.8,0-1.4,0.2-1.8,0.7c-0.5,0.5-0.7,1.1-0.7,1.9c0,0.5,0.1,0.9,0.3,1.3s0.4,0.7,0.7,1  c0.3,0.3,0.7,0.6,1.2,1c0.5,0.3,0.8,0.6,1,0.8c0.2,0.2,0.4,0.4,0.5,0.6c0.1,0.2,0.2,0.5,0.2,0.7c0,0.4-0.1,0.8-0.3,1  c-0.2,0.3-0.5,0.4-0.9,0.4c-0.4,0-0.6-0.1-0.9-0.4c-0.2-0.3-0.3-0.6-0.3-1.1v-0.3c0-0.1,0-0.1-0.1-0.1h-1.1c-0.1,0-0.1,0-0.1,0.1  v0.4c0,0.8,0.2,1.4,0.7,1.9C126.2,89.9,126.9,90.2,127.6,90.2 M124.2,79.8h-5.3c-0.1,0-0.1,0-0.1,0.1v0.9c0,0.1,0,0.1,0.1,0.1h1.8  c0,0,0.1,0,0.1,0.1v8.9c0,0.1,0,0.1,0.1,0.1h1.1c0.1,0,0.1,0,0.1-0.1V81c0,0,0-0.1,0.1-0.1h1.9c0.1,0,0.1,0,0.1-0.1v-0.9  C124.4,79.8,124.3,79.8,124.2,79.8 M114.4,81h1.1c0.4,0,0.7,0.2,1,0.5c0.2,0.3,0.4,0.7,0.4,1.3c0,0.5-0.1,0.9-0.4,1.2  c-0.2,0.3-0.6,0.5-1,0.5h-1.1c0,0-0.1,0-0.1-0.1L114.4,81C114.3,81,114.3,81,114.4,81 M117,90h1.1c0.1,0,0.1,0,0.1-0.1l0-0.1  l-1.5-4.5c0,0,0-0.1,0-0.1c0.4-0.2,0.8-0.5,1-1c0.3-0.5,0.4-1,0.4-1.6c0-0.6-0.1-1.1-0.3-1.5c-0.2-0.4-0.5-0.8-0.9-1  c-0.4-0.2-0.8-0.4-1.3-0.4H113c-0.1,0-0.1,0-0.1,0.1v10c0,0.1,0,0.1,0.1,0.1h1.1c0.1,0,0.1,0,0.1-0.1v-4.3c0,0,0-0.1,0.1-0.1h1  c0,0,0,0,0.1,0l1.3,4.4C116.8,90,116.9,90,117,90 M111.8,80.8v-0.9c0-0.1,0-0.1-0.1-0.1H107c-0.1,0-0.1,0-0.1,0.1v10  c0,0.1,0,0.1,0.1,0.1h4.6c0.1,0,0.1,0,0.1-0.1V89c0-0.1,0-0.1-0.1-0.1h-3.3c0,0-0.1,0-0.1-0.1v-3.2c0,0,0-0.1,0.1-0.1h2  c0.1,0,0.1,0,0.1-0.1v-0.9c0-0.1,0-0.1-0.1-0.1h-2c0,0-0.1,0-0.1-0.1V81c0,0,0-0.1,0.1-0.1h3.3C111.7,81,111.8,80.9,111.8,80.8   M103.1,84.4H102c0,0-0.1,0-0.1-0.1V81c0,0,0-0.1,0.1-0.1h1.1c0.4,0,0.7,0.2,1,0.5c0.2,0.3,0.4,0.7,0.4,1.3c0,0.5-0.1,0.9-0.4,1.3  C103.8,84.3,103.5,84.4,103.1,84.4 M103.3,79.7h-2.6c-0.1,0-0.1,0-0.1,0.1v10c0,0.1,0,0.1,0.1,0.1h1.1c0.1,0,0.1,0,0.1-0.1v-4.3  c0,0,0-0.1,0.1-0.1h1.4c0.7,0,1.3-0.3,1.8-0.8c0.4-0.5,0.7-1.2,0.7-2.1c0-0.9-0.2-1.6-0.7-2.1C104.7,80,104,79.7,103.3,79.7   M93.9,90h1.1c0.1,0,0.1,0,0.2-0.1l1.3-3.5c0,0,0,0,0,0c0,0,0,0,0,0l1.3,3.5c0,0.1,0.1,0.1,0.2,0.1h1.1c0.1,0,0.1,0,0.1-0.1l0-0.1  l-2-4.9c0,0,0-0.1,0-0.1l2-4.9c0,0,0-0.1,0-0.1c0,0-0.1-0.1-0.1-0.1h-1.1c-0.1,0-0.1,0-0.2,0.1l-1.3,3.5c0,0,0,0,0,0c0,0,0,0,0,0  l-1.3-3.5c0-0.1-0.1-0.1-0.2-0.1h-1.1c-0.1,0-0.1,0-0.1,0.1l0,0.1l2,4.9c0,0,0,0.1,0,0.1l-2,4.9c0,0,0,0.1,0,0.1  C93.9,90,93.9,90,93.9,90 M93.1,80.8v-0.9c0-0.1,0-0.1-0.1-0.1h-4.6c-0.1,0-0.1,0-0.1,0.1v10c0,0.1,0,0.1,0.1,0.1H93  c0.1,0,0.1,0,0.1-0.1V89c0-0.1,0-0.1-0.1-0.1h-3.3c0,0-0.1,0-0.1-0.1v-3.2c0,0,0-0.1,0.1-0.1h2c0.1,0,0.1,0,0.1-0.1v-0.9  c0-0.1,0-0.1-0.1-0.1h-2c0,0-0.1,0-0.1-0.1V81c0,0,0-0.1,0.1-0.1H93C93.1,81,93.1,80.9,93.1,80.8 M82.2,79.9v4.3c0,0,0,0.1-0.1,0.1  h-2.2c0,0-0.1,0-0.1-0.1v-4.3c0-0.1,0-0.1-0.1-0.1h-1.1c-0.1,0-0.1,0-0.1,0.1v10c0,0.1,0,0.1,0.1,0.1h1.1c0.1,0,0.1,0,0.1-0.1v-4.3  c0,0,0-0.1,0.1-0.1h2.2c0,0,0.1,0,0.1,0.1v4.3c0,0.1,0,0.1,0.1,0.1h1.1c0.1,0,0.1,0,0.1-0.1v-10c0-0.1,0-0.1-0.1-0.1h-1.1  C82.2,79.8,82.2,79.8,82.2,79.9 M74.5,90.2c0.8,0,1.4-0.2,1.9-0.7c0.5-0.5,0.7-1.1,0.7-1.9v-0.2c0-0.1,0-0.1-0.1-0.1l-1.1-0.1  c-0.1,0-0.1,0.1-0.1,0.1v0.4c0,0.4-0.1,0.7-0.3,1c-0.2,0.2-0.5,0.4-0.9,0.4s-0.7-0.1-0.9-0.4c-0.2-0.2-0.3-0.6-0.3-1v-5.4  c0-0.4,0.1-0.7,0.3-1c0.2-0.2,0.5-0.4,0.9-0.4s0.7,0.1,0.9,0.4c0.2,0.2,0.3,0.6,0.3,1v0.4c0,0.1,0,0.1,0.1,0.1l1.1-0.1  c0.1,0,0.1,0,0.1-0.1v-0.2c0-0.8-0.2-1.4-0.7-1.9c-0.5-0.5-1.1-0.7-1.9-0.7c-0.8,0-1.4,0.2-1.9,0.7c-0.5,0.5-0.7,1.1-0.7,1.9v5.2  c0,0.8,0.2,1.4,0.7,1.9C73.1,89.9,73.7,90.2,74.5,90.2 M70.9,80.8v-0.9c0-0.1,0-0.1-0.1-0.1h-4.6c-0.1,0-0.1,0-0.1,0.1v10  c0,0.1,0,0.1,0.1,0.1h4.6c0.1,0,0.1,0,0.1-0.1V89c0-0.1,0-0.1-0.1-0.1h-3.3c0,0-0.1,0-0.1-0.1v-3.2c0,0,0-0.1,0.1-0.1h2  c0.1,0,0.1,0,0.1-0.1v-0.9c0-0.1,0-0.1-0.1-0.1h-2c0,0-0.1,0-0.1-0.1V81c0,0,0-0.1,0.1-0.1h3.3C70.9,81,70.9,80.9,70.9,80.8   M64.8,79.8h-5.3c-0.1,0-0.1,0-0.1,0.1v0.9c0,0.1,0,0.1,0.1,0.1h1.8c0,0,0.1,0,0.1,0.1v8.9c0,0.1,0,0.1,0.1,0.1h1.1  c0.1,0,0.1,0,0.1-0.1V81c0,0,0-0.1,0.1-0.1h1.9c0.1,0,0.1,0,0.1-0.1v-0.9C65,79.8,64.9,79.8,64.8,79.8 M54.7,88.8V81  c0,0,0-0.1,0.1-0.1h1.1c0.4,0,0.7,0.1,0.9,0.4c0.2,0.3,0.3,0.7,0.3,1.2v4.6c0,0.5-0.1,0.9-0.4,1.2c-0.2,0.3-0.5,0.4-0.9,0.4  L54.7,88.8C54.7,88.8,54.7,88.8,54.7,88.8 M53.4,90h2.4c0.8,0,1.5-0.2,1.9-0.7s0.7-1.2,0.7-2v-4.7c0-0.9-0.2-1.5-0.7-2  s-1.1-0.7-1.9-0.7h-2.4c-0.1,0-0.1,0-0.1,0.1v10C53.3,90,53.3,90,53.4,90 M49.3,88.9c-0.4,0-0.7-0.1-0.9-0.4  c-0.2-0.3-0.3-0.6-0.3-1v-5.3c0-0.4,0.1-0.8,0.3-1c0.2-0.3,0.5-0.4,0.9-0.4c0.4,0,0.7,0.1,0.9,0.4c0.2,0.3,0.4,0.6,0.4,1v5.3  c0,0.4-0.1,0.8-0.4,1C50,88.8,49.7,88.9,49.3,88.9 M49.3,90.2c0.8,0,1.5-0.2,2-0.7c0.5-0.5,0.7-1.1,0.7-2v-5.1c0-0.8-0.2-1.5-0.7-2  c-0.5-0.5-1.1-0.7-2-0.7c-0.8,0-1.4,0.2-1.9,0.7c-0.5,0.5-0.7,1.1-0.7,2v5.1c0,0.8,0.2,1.5,0.7,2C47.8,89.9,48.5,90.2,49.3,90.2   M42.8,88.9c-0.4,0-0.7-0.1-0.9-0.4c-0.2-0.3-0.3-0.6-0.3-1v-5.3c0-0.4,0.1-0.8,0.3-1c0.2-0.3,0.5-0.4,0.9-0.4  c0.4,0,0.7,0.1,0.9,0.4c0.2,0.3,0.4,0.6,0.4,1v5.3c0,0.4-0.1,0.8-0.4,1C43.5,88.8,43.2,88.9,42.8,88.9 M42.8,90.2  c0.8,0,1.5-0.2,2-0.7c0.5-0.5,0.7-1.1,0.7-2v-5.1c0-0.8-0.2-1.5-0.7-2s-1.1-0.7-2-0.7c-0.8,0-1.4,0.2-1.9,0.7  c-0.5,0.5-0.7,1.1-0.7,2v5.1c0,0.8,0.2,1.5,0.7,2C41.3,89.9,42,90.2,42.8,90.2 M39.5,80.8v-0.9c0-0.1,0-0.1-0.1-0.1h-4.6  c-0.1,0-0.1,0-0.1,0.1v10c0,0.1,0,0.1,0.1,0.1h1.1c0.1,0,0.1,0,0.1-0.1v-4.3c0,0,0-0.1,0.1-0.1h2c0.1,0,0.1,0,0.1-0.1v-0.9  c0-0.1,0-0.1-0.1-0.1h-2c0,0-0.1,0-0.1-0.1V81c0,0,0-0.1,0.1-0.1h3.3C39.4,81,39.5,80.9,39.5,80.8 M30.4,80.8v-0.9  c0-0.1,0-0.1-0.1-0.1h-4.6c-0.1,0-0.1,0-0.1,0.1v10c0,0.1,0,0.1,0.1,0.1h4.6c0.1,0,0.1,0,0.1-0.1V89c0-0.1,0-0.1-0.1-0.1h-3.3  c0,0-0.1,0-0.1-0.1v-3.2c0,0,0-0.1,0.1-0.1h2c0.1,0,0.1,0,0.1-0.1v-0.9c0-0.1,0-0.1-0.1-0.1h-2c0,0-0.1,0-0.1-0.1V81  c0,0,0-0.1,0.1-0.1h3.3C30.3,81,30.4,80.9,30.4,80.8 M22.6,79.9v4.3c0,0,0,0.1-0.1,0.1h-2.2c0,0-0.1,0-0.1-0.1v-4.3  c0-0.1,0-0.1-0.1-0.1H19c-0.1,0-0.1,0-0.1,0.1v10c0,0.1,0,0.1,0.1,0.1h1.1c0.1,0,0.1,0,0.1-0.1v-4.3c0,0,0-0.1,0.1-0.1h2.2  c0,0,0.1,0,0.1,0.1v4.3c0,0.1,0,0.1,0.1,0.1h1.1c0.1,0,0.1,0,0.1-0.1v-10c0-0.1,0-0.1-0.1-0.1h-1.1C22.6,79.8,22.6,79.8,22.6,79.9   M17.7,79.8h-5.3c-0.1,0-0.1,0-0.1,0.1v0.9c0,0.1,0,0.1,0.1,0.1h1.8c0,0,0.1,0,0.1,0.1v8.9c0,0.1,0,0.1,0.1,0.1h1.1  c0.1,0,0.1,0,0.1-0.1V81c0,0,0-0.1,0.1-0.1h1.9c0.1,0,0.1,0,0.1-0.1v-0.9C17.8,79.8,17.8,79.8,17.7,79.8"></path></g></svg>